<svg width="859" height="824" viewBox="0 0 859 824" fill="none" xmlns="http://www.w3.org/2000/svg">
<g clip-path="url(#clip0_44_2)">
<path d="M837.67 456.62C837.67 629.54 665.01 822.06 492.1 822.06C319.19 822.06 198.04 636.67 198.04 463.76C198.04 290.85 299.21 1.25 472.12 1.25C645.03 1.25 837.68 283.71 837.68 456.62H837.67Z" stroke="black" stroke-width="2.5" stroke-linecap="round"/>
<path d="M839.89 461.4C839.89 629.85 650.18 807.84 480.96 806.44C304.75 804.41 173.38 626.57 176.34 458.32C179.44 281.86 296.45 15.69 464.84 17.59C647.29 19.65 839.9 292.95 839.9 461.4H839.89Z" stroke="black" stroke-width="2.5" stroke-linecap="round"/>
<path d="M842.11 466.18C842.11 630.16 635.34 794.08 469.81 790.81C290.3 787.25 148.89 616.45 154.64 452.88C160.96 272.87 293.7 30.32 457.55 33.94C649.55 38.18 842.11 302.2 842.11 466.19V466.18Z" stroke="black" stroke-width="2.5" stroke-linecap="round"/>
<path d="M844.34 470.96C844.34 630.49 620.51 779.99 458.67 775.18C275.87 769.75 124.57 606.32 132.95 447.43C142.63 263.85 290.97 45.1 450.28 50.27C651.83 56.81 844.34 311.43 844.34 470.96Z" stroke="black" stroke-width="2.5" stroke-linecap="round"/>
<path d="M846.55 475.73C846.55 630.79 605.67 765.81 447.52 759.54C261.41 752.17 100.38 596.18 111.24 441.98C124.43 254.82 288.22 60.01 442.99 66.6C654.1 75.59 846.55 320.66 846.55 475.73Z" stroke="black" stroke-width="2.5" stroke-linecap="round"/>
<path d="M848.78 480.51C848.78 631.11 590.84 751.58 436.38 743.93C246.97 734.53 76.3398 586.08 89.5498 436.55C106.4 245.83 285.48 75.06 435.72 82.95C656.37 94.54 848.78 329.92 848.78 480.52V480.51Z" stroke="black" stroke-width="2.5" stroke-linecap="round"/>
<path d="M851.01 485.29C851.01 631.42 576.01 737.28 425.24 728.29C232.54 716.8 52.4298 575.96 67.8598 431.1C88.5498 236.83 282.73 90.19 428.44 99.28C658.64 113.64 851.01 339.15 851.01 485.29Z" stroke="black" stroke-width="2.5" stroke-linecap="round"/>
<path d="M853.23 490.06C853.23 631.74 561.18 722.92 414.1 712.66C218.11 698.99 28.6499 565.87 46.1699 425.65C70.8899 227.87 279.98 105.42 421.17 115.62C660.89 132.93 853.24 348.39 853.24 490.07H853.23V490.06Z" stroke="black" stroke-width="2.5" stroke-linecap="round"/>
<path d="M855.46 494.84C855.46 632.05 546.39 708.26 402.96 697.03C203.72 680.76 4.96986 555.81 24.4699 420.21C53.4099 218.94 277.2 120.73 413.88 131.95C663.1 152.41 855.46 357.62 855.46 494.84Z" stroke="black" stroke-width="2.5" stroke-linecap="round"/>
<path d="M857.68 499.62C857.68 632.37 531.55 694.04 391.81 681.41C189.28 663.1 -18.6001 545.79 2.7699 414.77C36.1699 210.09 274.41 136.12 406.6 148.3C665.29 172.14 857.68 366.87 857.68 499.63V499.62Z" stroke="black" stroke-width="2.5" stroke-linecap="round"/>
</g>
<defs>
<clipPath id="clip0_44_2">
<rect width="858.93" height="823.31" fill="white"/>
</clipPath>
</defs>
</svg>
